<svg width="185" height="186" viewBox="0 0 185 186" fill="none" xmlns="http://www.w3.org/2000/svg">
<rect y="49" width="88" height="88" rx="4" fill="white" fill-opacity="0.8"/>
<path d="M97 49.2968C97 48.5242 97.298 47.7814 97.832 47.2231L137.832 5.40312C139.702 3.44833 143 4.77173 143 7.47674V91.1666C143 91.9333 142.706 92.6709 142.18 93.2279L102.18 135.523C100.315 137.494 97 136.175 97 133.462V49.2968Z" fill="white" fill-opacity="0.8"/>
<path d="M42 94.2968C42 93.5242 42.298 92.7814 42.832 92.2231L82.832 50.4031C84.7017 48.4483 88 49.7717 88 52.4767V136.167C88 136.933 87.7065 137.671 87.1796 138.228L47.1796 180.523C45.3153 182.494 42 181.175 42 178.462V94.2968Z" fill="#848484" fill-opacity="0.6"/>
<rect x="97" y="49" width="88" height="88" rx="4" fill="#848484" fill-opacity="0.6"/>
</svg>
